<?xml version="1.0" encoding="UTF-8" standalone="no"?>
<svg width="17.120739" height="13.603738" viewBox="0 0 17.120739 13.603738" fill="currentColor" version="1.1" id="svg4">
  <defs id="defs8"/>
  <path d="m 4.5351199,0.94986321 c -0.91335,-0.37612 -1.67448,-0.68956 -2.26582,-0.84097 -0.57281,-0.14666 -1.31110996,-0.22941 -1.85429996,0.3216 -0.54319,0.551 -0.4499,1.28803999 -0.29507,1.85869999 0.15983,0.58912 0.48411,1.3457 0.87324,2.25358 l 0.64675996,1.5091 h 5.13741 c 0.4142,0 0.75,0.3358 0.75,0.75 0,0.4142 -0.3358,0.75 -0.75,0.75 h -5.1374 l -0.64676996,1.5091 c -0.38913,0.9079 -0.71341,1.6644998 -0.87324,2.2535998 -0.15483,0.5706 -0.24812,1.3077 0.29507,1.8587 0.54319,0.551 1.28148996,0.4682 1.85429996,0.3216 0.59134,-0.1514 1.35247,-0.4649 2.26581,-0.841 L 15.97704,7.9424732 c 0.2056,-0.0845 0.4282,-0.1761 0.5944,-0.2736 0.1499,-0.088 0.5493,-0.3478 0.5493,-0.867 0,-0.5192 -0.3994,-0.779 -0.5493,-0.867 -0.1662,-0.0975 -0.3888,-0.1891 -0.5944,-0.2736 z" fill="#000000" id="path2"/>
</svg>
